<!-- Created with Inkscape (http://www.inkscape.org/) -->
<svg xmlns:rdf="http://www.w3.org/1999/02/22-rdf-syntax-ns#" xmlns="http://www.w3.org/2000/svg" height="45.2" width="45.2" version="1.0" xmlns:cc="http://creativecommons.org/ns#" xmlns:dc="http://purl.org/dc/elements/1.1/">
 <defs></defs>
 <metadata>
  <rdf:RDF>
   <cc:Work rdf:about="">
    <dc:format>image/svg+xml</dc:format>
    <dc:type rdf:resource="http://purl.org/dc/dcmitype/StillImage"/>
    <dc:title/>
   </cc:Work>
  </rdf:RDF>
 </metadata>
 <g transform="translate(113.16893,87.666093)">
  <path stroke-linejoin="miter" d="M-88.18-79.46v19.17" stroke-dashoffset="0" stroke="#000000" stroke-linecap="round" stroke-miterlimit="4" stroke-dasharray="none" stroke-width="3" fill="none"/>
  <path stroke-linejoin="miter" d="M-105.6-62.46l17.42-17.07,14.85,17.67" stroke-dashoffset="0" stroke="#000000" stroke-linecap="round" stroke-miterlimit="4" stroke-dasharray="none" stroke-width="0.79999995" fill="none"/>
  <path stroke-linejoin="miter" d="m-88.14-79.46,0,19.17" stroke-dashoffset="0" stroke="#ffffff" stroke-linecap="round" stroke-miterlimit="4" stroke-dasharray="none" stroke-width="1.49999976" fill="none"/>
  <path stroke-linejoin="miter" d="M-104.8-55.15l28.13,0.06s0.69-0.21,0.75-0.25c5.43-4.26,5.03-8.54,5.03-8.54l-5.09,4.04h-23.33l-0.89-2.38h-10.7v2.38h3.9l2,4.62" fill-rule="nonzero" stroke-dashoffset="0" stroke="#000000" stroke-linecap="round" stroke-miterlimit="4" stroke-dasharray="none" stroke-width="1.49999988000000010" fill="#ffffff"/>
  <path stroke-linejoin="miter" d="M-78.78-63.22s2.03-6.63-1.78-12.54h-0.07-17.56-0.2c3.81,5.91,1.87,12.49,2.01,12.54h0.83,16.77z" fill-rule="nonzero" stroke-dashoffset="0" stroke="#000000" stroke-linecap="round" stroke-miterlimit="4" stroke-dasharray="none" stroke-width="1.50000000000000000" fill="#ffffff"/>
  <path stroke-linejoin="miter" d="M-78.78-63.22s2.03-6.63-1.78-12.54h-0.07-17.56-0.2c3.81,5.91,1.87,12.49,2.01,12.54h0.83,16.77z" fill-rule="nonzero" stroke-dashoffset="0" stroke="#000000" stroke-linecap="round" stroke-miterlimit="4" stroke-dasharray="none" stroke-width="1.50000000000000000" fill="#000000"/>
  <path stroke-linejoin="miter" d="m-79.54-64.1s1.755-5.7-1.534-10.78h-0.06206-15.68-0.1688c3.29,5.077,1.614,10.73,1.734,10.78l0.7229-0.0058z" fill-rule="nonzero" stroke-dashoffset="0" stroke="#ffffff" stroke-linecap="round" stroke-miterlimit="4" stroke-dasharray="none" stroke-width="1" fill="#000000"/>
  <path stroke-linejoin="miter" d="m-72.19-61.66-3.219,2.531a0.9245,0.9245,0,0,1,-0.5625,0.2188h-23.34a0.9245,0.9245,0,0,1,-0.875,-0.625l-0.625-1.75h-9.188v0.5h3a0.9245,0.9245,0,0,1,0.8438,0.5625l1.812,4.125,27.59,0.0625c0.06325-0.01917,0.07096-0.03558,0.1562-0.0625,0.07526-0.02375,0.163-0.04342,0.2188-0.0625,2.5-1.998,3.641-3.953,4.156-5.375,0.02938-0.08109,0.0056-0.04786,0.03125-0.125z" fill-rule="nonzero" stroke-dashoffset="0" stroke="#ffffff" stroke-linecap="round" stroke-miterlimit="4" stroke-width="1" fill="#000000"/>
 </g>
</svg>
